<svg xmlns="http://www.w3.org/2000/svg" xmlns:svg="http://www.w3.org/2000/svg" xmlns:xlink="http://www.w3.org/1999/xlink" version="1.0" height="831pt" width="950.0000000000006pt" viewBox="154.9999999999999 -73.00000000000006 958.0000000000006 837" ><defs><style type="text/css">
            @font-face {
                font-family: 'lt_regular';
                src: url('https://app.creately.com/diagram/assets/fonts/lato/lt-regular-webfont.woff2') format('woff2'),
                    url('https://app.creately.com/diagram/assets/fonts/lato/lt-regular-webfont.woff') format('woff');
                font-weight: normal;
                font-style: normal;
            }
            @font-face {
                font-family: 'noto_regular';
                src: url('https://app.creately.com/diagram/assets/fonts/noto/noto-regular.woff') format('woff'),
                     url('https://app.creately.com/diagram/assets/fonts/noto/noto-regular.woff2') format('woff2');
                font-weight: normal;
                font-style: normal;
            }
        p {
            margin: 0;
        }
        </style></defs><defs><style>
            span{ display: inline-block; }
        </style></defs><g id="ERP1genKSYN"><g transform="translate(159.9999999999999 -70.00000000000006)"><rect x="0" y="0" width="180" height="194" rx="2" ry="2" fill="rgb(148,165,166)" stroke="#516263" stroke-width="2" stroke-linecap="round" stroke-linejoin="round" stroke-dasharray="0 0"/><path d="M 0,28 L 180,28 M 0,110 L 180,110" fill="rgb(148,165,166)" stroke="#516263" stroke-width="2" stroke-linecap="round" stroke-linejoin="round" stroke-dasharray="0 0"/></g><g transform="translate(224.06999999999988, -65.00000000000006) rotate(0, 25.93, 0)" width="51.86" height="18"><text text-decoration="none" x="0.9299999999999997" fill="#4b4b4b" font-size="10pt" font-family="lt_regular"  y="17">Manager</text><text text-decoration="none" x="50.93" fill="#4b4b4b" font-size="10pt" font-family="noto_regular"  y="17"></text></g><g transform="translate(164.9999999999999, -36.00000000000006) rotate(0, 0, 0)" width="85.1" height="72"><text text-decoration="none" x="0" fill="#4b4b4b" font-size="10pt" font-family="lt_regular"  y="14">+Name:&#160;</text><text text-decoration="none" x="48" fill="#4b4b4b" font-size="10pt" font-family="lt_regular"  y="14">string</text><text text-decoration="none" x="81" fill="#4b4b4b" font-size="10pt" font-family="lt_regular"  y="14"></text><text text-decoration="none" x="0" fill="#4b4b4b" font-size="10pt" font-family="lt_regular"  y="33">+Id:&#160;</text><text text-decoration="none" x="25" fill="#4b4b4b" font-size="10pt" font-family="lt_regular"  y="33">int</text><text text-decoration="none" x="40" fill="#4b4b4b" font-size="10pt" font-family="lt_regular"  y="33"></text><text text-decoration="none" x="0" fill="#4b4b4b" font-size="10pt" font-family="lt_regular"  y="52">+PhoneNo:&#160;</text><text text-decoration="none" x="67" fill="#4b4b4b" font-size="10pt" font-family="lt_regular"  y="52">int</text><text text-decoration="none" x="82" fill="#4b4b4b" font-size="10pt" font-family="lt_regular"  y="52"></text><text text-decoration="none" x="42.55" fill="#4b4b4b" font-size="10pt" font-family="noto_regular"  y="74"></text></g><g transform="translate(164.9999999999999, 45.99999999999994) rotate(0, 0, 0)" width="159.15" height="72"><text text-decoration="none" x="0" fill="rgb(75, 75, 75)" font-size="10pt" font-family="lt_regular"  y="14"></text><text text-decoration="none" x="0" fill="rgb(75, 75, 75)" font-size="10pt" font-family="lt_regular"  y="33">+PurchaseInventry()&#160;</text><text text-decoration="none" x="118" fill="rgb(75, 75, 75)" font-size="10pt" font-family="lt_regular"  y="33">:public</text><text text-decoration="none" x="154" fill="rgb(75, 75, 75)" font-size="10pt" font-family="lt_regular"  y="33"></text><text text-decoration="none" x="0" fill="rgb(75, 75, 75)" font-size="10pt" font-family="lt_regular"  y="52">+RecordComplaints()</text><text text-decoration="none" x="118" fill="rgb(75, 75, 75)" font-size="10pt" font-family="lt_regular"  y="52"></text><text text-decoration="none" x="0" fill="rgb(75, 75, 75)" font-size="10pt" font-family="lt_regular"  y="74">+ManageStaff()</text><text text-decoration="none" x="87" fill="#4b4b4b" font-size="10pt" font-family="noto_regular"  y="74"></text></g></g><g id="17LSFfmMtWN"><g transform="translate(160 260.00000000000006)"><rect x="0" y="0" width="180" height="195" rx="2" ry="2" fill="rgb(148,165,166)" stroke="#516263" stroke-width="2" stroke-linecap="round" stroke-linejoin="round" stroke-dasharray="0 0"/><path d="M 0,28 L 180,28 M 0,92.00999999999999 L 180,92.00999999999999" fill="rgb(148,165,166)" stroke="#516263" stroke-width="2" stroke-linecap="round" stroke-linejoin="round" stroke-dasharray="0 0"/></g><g transform="translate(229.77, 265.00000000000006) rotate(0, 20.23, 0)" width="40.46" height="18"><text text-decoration="none" x="0.7300000000000004" fill="#4b4b4b" font-size="10pt" font-family="lt_regular"  y="17">Owner</text><text text-decoration="none" x="39.730000000000004" fill="#4b4b4b" font-size="10pt" font-family="noto_regular"  y="17"></text></g><g transform="translate(165, 294.00000000000006) rotate(0, 0, 0)" width="90.57" height="54.01"><text text-decoration="none" x="0" fill="#4b4b4b" font-size="10pt" font-family="lt_regular"  y="14">+&#160;</text><text text-decoration="none" x="11" fill="#4b4b4b" font-size="10pt" font-family="lt_regular"  y="14">ID&#160;</text><text text-decoration="none" x="28" fill="#4b4b4b" font-size="10pt" font-family="lt_regular"  y="14">:&#160;</text><text text-decoration="none" x="34" fill="#4b4b4b" font-size="10pt" font-family="lt_regular"  y="14">Int</text><text text-decoration="none" x="50" fill="#4b4b4b" font-size="10pt" font-family="lt_regular"  y="14"></text><text text-decoration="none" x="0" fill="#4b4b4b" font-size="10pt" font-family="lt_regular"  y="33">+&#160;</text><text text-decoration="none" x="11" fill="#4b4b4b" font-size="10pt" font-family="lt_regular"  y="33">Name&#160;</text><text text-decoration="none" x="48" fill="#4b4b4b" font-size="10pt" font-family="lt_regular"  y="33">:&#160;</text><text text-decoration="none" x="54" fill="#4b4b4b" font-size="10pt" font-family="lt_regular"  y="33">String</text><text text-decoration="none" x="88" fill="#4b4b4b" font-size="10pt" font-family="lt_regular"  y="33"></text><text text-decoration="none" x="0" fill="#4b4b4b" font-size="10pt" font-family="lt_regular"  y="55">-&#160;</text><text text-decoration="none" x="8" fill="#4b4b4b" font-size="10pt" font-family="lt_regular"  y="55">PhoneNo&#160;</text><text text-decoration="none" x="64" fill="#4b4b4b" font-size="10pt" font-family="lt_regular"  y="55">:&#160;</text><text text-decoration="none" x="70" fill="#4b4b4b" font-size="10pt" font-family="lt_regular"  y="55">Int</text><text text-decoration="none" x="86" fill="#4b4b4b" font-size="10pt" font-family="noto_regular"  y="55"></text></g><g transform="translate(165, 359.00000000000006) rotate(0, 0, 0)" width="129.52" height="90"><text text-decoration="none" x="0" fill="#4b4b4b" font-size="10pt" font-family="lt_regular"  y="14">+&#160;</text><text text-decoration="none" x="11" fill="#4b4b4b" font-size="10pt" font-family="lt_regular"  y="14">View&#160;</text><text text-decoration="none" x="43" fill="#4b4b4b" font-size="10pt" font-family="lt_regular"  y="14">Complains&#160;</text><text text-decoration="none" x="105" fill="#4b4b4b" font-size="10pt" font-family="lt_regular"  y="14">(&#160;</text><text text-decoration="none" x="111" fill="#4b4b4b" font-size="10pt" font-family="lt_regular"  y="14">)&#160;</text><text text-decoration="none" x="117" fill="#4b4b4b" font-size="10pt" font-family="lt_regular"  y="14">:&#160;</text><text text-decoration="none" x="123" fill="#4b4b4b" font-size="10pt" font-family="lt_regular"  y="14"></text><text text-decoration="none" x="0" fill="#4b4b4b" font-size="10pt" font-family="lt_regular"  y="33">+&#160;</text><text text-decoration="none" x="11" fill="#4b4b4b" font-size="10pt" font-family="lt_regular"  y="33">View&#160;</text><text text-decoration="none" x="43" fill="#4b4b4b" font-size="10pt" font-family="lt_regular"  y="33">GuestInfo&#160;</text><text text-decoration="none" x="104" fill="#4b4b4b" font-size="10pt" font-family="lt_regular"  y="33">(&#160;</text><text text-decoration="none" x="110" fill="#4b4b4b" font-size="10pt" font-family="lt_regular"  y="33">)&#160;</text><text text-decoration="none" x="116" fill="#4b4b4b" font-size="10pt" font-family="lt_regular"  y="33">:</text><text text-decoration="none" x="119" fill="#4b4b4b" font-size="10pt" font-family="lt_regular"  y="33"></text><text text-decoration="none" x="0" fill="#4b4b4b" font-size="10pt" font-family="lt_regular"  y="52">+&#160;</text><text text-decoration="none" x="11" fill="#4b4b4b" font-size="10pt" font-family="lt_regular"  y="52">View&#160;</text><text text-decoration="none" x="43" fill="#4b4b4b" font-size="10pt" font-family="lt_regular"  y="52">RoomInfo()</text><text text-decoration="none" x="105" fill="#4b4b4b" font-size="10pt" font-family="lt_regular"  y="52"></text><text text-decoration="none" x="0" fill="#4b4b4b" font-size="10pt" font-family="lt_regular"  y="71">+&#160;</text><text text-decoration="none" x="11" fill="#4b4b4b" font-size="10pt" font-family="lt_regular"  y="71">View&#160;</text><text text-decoration="none" x="43" fill="#4b4b4b" font-size="10pt" font-family="lt_regular"  y="71">Bills()&#160;</text><text text-decoration="none" x="75" fill="#4b4b4b" font-size="10pt" font-family="lt_regular"  y="71">:&#160;</text><text text-decoration="none" x="81" fill="#4b4b4b" font-size="10pt" font-family="lt_regular"  y="71"></text><text text-decoration="none" x="0" fill="#4b4b4b" font-size="10pt" font-family="lt_regular"  y="93">+&#160;</text><text text-decoration="none" x="11" fill="#4b4b4b" font-size="10pt" font-family="lt_regular"  y="93">View&#160;</text><text text-decoration="none" x="43" fill="#4b4b4b" font-size="10pt" font-family="lt_regular"  y="93">FoodItems()&#160;</text><text text-decoration="none" x="113" fill="#4b4b4b" font-size="10pt" font-family="lt_regular"  y="93">:</text><text text-decoration="none" x="116" fill="#4b4b4b" font-size="10pt" font-family="noto_regular"  y="93"></text></g></g><g id="d2sG9TxayAb"><g transform="translate(549.9999999999999 -69.99999999999999)"><rect x="0" y="0" width="180" height="160" rx="2" ry="2" fill="rgb(148,165,166)" stroke="#516263" stroke-width="2" stroke-linecap="round" stroke-linejoin="round" stroke-dasharray="0 0"/><path d="M 0,28 L 180,28 M 0,74.00999999999999 L 180,74.00999999999999" fill="rgb(148,165,166)" stroke="#516263" stroke-width="2" stroke-linecap="round" stroke-linejoin="round" stroke-dasharray="0 0"/></g><g transform="translate(611.7149999999999, -64.99999999999999) rotate(0, 28.285, 0)" width="56.57" height="18"><text text-decoration="none" x="0.28500000000000014" fill="#4b4b4b" font-size="10pt" font-family="lt_regular"  y="17">Inventory</text><text text-decoration="none" x="56.285" fill="#4b4b4b" font-size="10pt" font-family="noto_regular"  y="17"></text></g><g transform="translate(554.9999999999999, -35.999999999999986) rotate(0, 0, 0)" width="84.05" height="36.01"><text text-decoration="none" x="0" fill="#4b4b4b" font-size="10pt" font-family="lt_regular"  y="14">+Type:&#160;</text><text text-decoration="none" x="43" fill="#4b4b4b" font-size="10pt" font-family="lt_regular"  y="14">string</text><text text-decoration="none" x="76" fill="#4b4b4b" font-size="10pt" font-family="lt_regular"  y="14"></text><text text-decoration="none" x="0" fill="#4b4b4b" font-size="10pt" font-family="lt_regular"  y="36">+Status:&#160;</text><text text-decoration="none" x="50" fill="#4b4b4b" font-size="10pt" font-family="lt_regular"  y="36">string</text><text text-decoration="none" x="83" fill="#4b4b4b" font-size="10pt" font-family="noto_regular"  y="36"></text></g><g transform="translate(554.9999999999999, 11.000000000000014) rotate(0, 0, 0)" width="164.32" height="90"><text text-decoration="none" x="0" fill="#4b4b4b" font-size="10pt" font-family="lt_regular"  y="14">UpdateInventory()&#160;</text><text text-decoration="none" x="107" fill="#4b4b4b" font-size="10pt" font-family="lt_regular"  y="14">:public</text><text text-decoration="none" x="143" fill="#4b4b4b" font-size="10pt" font-family="lt_regular"  y="14"></text><text text-decoration="none" x="0" fill="#4b4b4b" font-size="10pt" font-family="lt_regular"  y="33">//&#160;</text><text text-decoration="none" x="15" fill="#4b4b4b" font-size="10pt" font-family="lt_regular"  y="33">(--)&#160;</text><text text-decoration="none" x="34" fill="#4b4b4b" font-size="10pt" font-family="lt_regular"  y="33">This&#160;</text><text text-decoration="none" x="61" fill="#4b4b4b" font-size="10pt" font-family="lt_regular"  y="33">is&#160;</text><text text-decoration="none" x="73" fill="#4b4b4b" font-size="10pt" font-family="lt_regular"  y="33">a&#160;</text><text text-decoration="none" x="82" fill="#4b4b4b" font-size="10pt" font-family="lt_regular"  y="33">section&#160;</text><text text-decoration="none" x="126" fill="#4b4b4b" font-size="10pt" font-family="lt_regular"  y="33">break</text><text text-decoration="none" x="158" fill="#4b4b4b" font-size="10pt" font-family="lt_regular"  y="33"></text><text text-decoration="none" x="0" fill="#4b4b4b" font-size="10pt" font-family="lt_regular"  y="52">//&#160;</text><text text-decoration="none" x="15" fill="#4b4b4b" font-size="10pt" font-family="lt_regular"  y="52">Line&#160;</text><text text-decoration="none" x="42" fill="#4b4b4b" font-size="10pt" font-family="lt_regular"  y="52">break&#160;</text><text text-decoration="none" x="77" fill="#4b4b4b" font-size="10pt" font-family="lt_regular"  y="52">(\n)&#160;</text><text text-decoration="none" x="99" fill="#4b4b4b" font-size="10pt" font-family="lt_regular"  y="52">enter&#160;</text><text text-decoration="none" x="0" fill="#4b4b4b" font-size="10pt" font-family="lt_regular"  y="71">in-between&#160;</text><text text-decoration="none" x="68" fill="#4b4b4b" font-size="10pt" font-family="lt_regular"  y="71">text&#160;</text><text text-decoration="none" x="94" fill="#4b4b4b" font-size="10pt" font-family="lt_regular"  y="71">for&#160;</text><text text-decoration="none" x="114" fill="#4b4b4b" font-size="10pt" font-family="lt_regular"  y="71">line&#160;</text><text text-decoration="none" x="0" fill="#4b4b4b" font-size="10pt" font-family="lt_regular"  y="93">break</text><text text-decoration="none" x="32" fill="#4b4b4b" font-size="10pt" font-family="noto_regular"  y="93"></text></g></g><g id="zgBuAxumedg"><g transform="translate(549.9999999999999 190.0000000000001)"><rect x="0" y="0" width="180" height="266" rx="2" ry="2" fill="rgb(148,165,166)" stroke="#516263" stroke-width="2" stroke-linecap="round" stroke-linejoin="round" stroke-dasharray="0 0"/><path d="M 0,46.01 L 180,46.01 M 0,164.01 L 180,164.01" fill="rgb(148,165,166)" stroke="#516263" stroke-width="2" stroke-linecap="round" stroke-linejoin="round" stroke-dasharray="0 0"/></g><g transform="translate(611.3549999999999, 195.0000000000001) rotate(0, 28.645, 0)" width="57.29" height="36.01"><text text-decoration="none" x="0.14499999999999957" fill="rgb(75, 75, 75)" font-size="10pt" font-family="lt_regular"  y="14">Customer</text><text text-decoration="none" x="57.144999999999996" fill="rgb(75, 75, 75)" font-size="10pt" font-family="lt_regular"  y="14"></text><text text-decoration="none" x="26.145" fill="rgb(75, 75, 75)" font-size="10pt" font-family="lt_regular"  y="36">-</text><text text-decoration="none" x="31.145" fill="#4b4b4b" font-size="10pt" font-family="noto_regular"  y="36"></text></g><g transform="translate(554.9999999999999, 242.0000000000001) rotate(0, 0, 0)" width="94.8" height="108"><text text-decoration="none" x="0" fill="#4b4b4b" font-size="10pt" font-family="lt_regular"  y="14">+ID:&#160;</text><text text-decoration="none" x="28" fill="#4b4b4b" font-size="10pt" font-family="lt_regular"  y="14">int</text><text text-decoration="none" x="43" fill="#4b4b4b" font-size="10pt" font-family="lt_regular"  y="14"></text><text text-decoration="none" x="0" fill="#4b4b4b" font-size="10pt" font-family="lt_regular"  y="33">+Name:&#160;</text><text text-decoration="none" x="48" fill="#4b4b4b" font-size="10pt" font-family="lt_regular"  y="33">string</text><text text-decoration="none" x="81" fill="#4b4b4b" font-size="10pt" font-family="lt_regular"  y="33"></text><text text-decoration="none" x="0" fill="#4b4b4b" font-size="10pt" font-family="lt_regular"  y="52">+Tel&#160;</text><text text-decoration="none" x="29" fill="#4b4b4b" font-size="10pt" font-family="lt_regular"  y="52">No:&#160;</text><text text-decoration="none" x="52" fill="#4b4b4b" font-size="10pt" font-family="lt_regular"  y="52">int</text><text text-decoration="none" x="67" fill="#4b4b4b" font-size="10pt" font-family="lt_regular"  y="52"></text><text text-decoration="none" x="0" fill="#4b4b4b" font-size="10pt" font-family="lt_regular"  y="71">+Address:&#160;</text><text text-decoration="none" x="61" fill="#4b4b4b" font-size="10pt" font-family="lt_regular"  y="71">string</text><text text-decoration="none" x="94" fill="#4b4b4b" font-size="10pt" font-family="lt_regular"  y="71"></text><text text-decoration="none" x="0" fill="#4b4b4b" font-size="10pt" font-family="lt_regular"  y="90">+Room&#160;</text><text text-decoration="none" x="44" fill="#4b4b4b" font-size="10pt" font-family="lt_regular"  y="90">No:&#160;</text><text text-decoration="none" x="67" fill="#4b4b4b" font-size="10pt" font-family="lt_regular"  y="90">in</text><text text-decoration="none" x="77" fill="#4b4b4b" font-size="10pt" font-family="lt_regular"  y="90"></text><text text-decoration="none" x="47.4" fill="#4b4b4b" font-size="10pt" font-family="noto_regular"  y="112"></text></g><g transform="translate(554.9999999999999, 360.0000000000001) rotate(0, 0, 0)" width="148.13" height="90"><text text-decoration="none" x="0" fill="#4b4b4b" font-size="10pt" font-family="lt_regular"  y="14">+GuestInfo()&#160;</text><text text-decoration="none" x="75" fill="#4b4b4b" font-size="10pt" font-family="lt_regular"  y="14">:public</text><text text-decoration="none" x="111" fill="#4b4b4b" font-size="10pt" font-family="lt_regular"  y="14"></text><text text-decoration="none" x="0" fill="#4b4b4b" font-size="10pt" font-family="lt_regular"  y="33">+CheckIn()&#160;</text><text text-decoration="none" x="64" fill="#4b4b4b" font-size="10pt" font-family="lt_regular"  y="33">:public</text><text text-decoration="none" x="100" fill="#4b4b4b" font-size="10pt" font-family="lt_regular"  y="33"></text><text text-decoration="none" x="0" fill="#4b4b4b" font-size="10pt" font-family="lt_regular"  y="52">+CheckOut()&#160;</text><text text-decoration="none" x="75" fill="#4b4b4b" font-size="10pt" font-family="lt_regular"  y="52">:public</text><text text-decoration="none" x="111" fill="#4b4b4b" font-size="10pt" font-family="lt_regular"  y="52"></text><text text-decoration="none" x="0" fill="#4b4b4b" font-size="10pt" font-family="lt_regular"  y="71">+Pays&#160;</text><text text-decoration="none" x="38" fill="#4b4b4b" font-size="10pt" font-family="lt_regular"  y="71">Bill()&#160;&#160;</text><text text-decoration="none" x="67" fill="#4b4b4b" font-size="10pt" font-family="lt_regular"  y="71">:public</text><text text-decoration="none" x="103" fill="#4b4b4b" font-size="10pt" font-family="lt_regular"  y="71"></text><text text-decoration="none" x="0" fill="#4b4b4b" font-size="10pt" font-family="lt_regular"  y="93">+OrderFoodItem()&#160;</text><text text-decoration="none" x="106" fill="#4b4b4b" font-size="10pt" font-family="lt_regular"  y="93">:public</text><text text-decoration="none" x="142" fill="#4b4b4b" font-size="10pt" font-family="noto_regular"  y="93"></text></g></g><g id="c2hdij1KHxj"><g transform="translate(920 -69.99999999999999)"><rect x="0" y="0" width="188" height="213" rx="2" ry="2" fill="rgb(148,165,166)" stroke="#516263" stroke-width="2" stroke-linecap="round" stroke-linejoin="round" stroke-dasharray="0 0"/><path d="M 0,28 L 188,28 M 0,110 L 188,110" fill="rgb(148,165,166)" stroke="#516263" stroke-width="2" stroke-linecap="round" stroke-linejoin="round" stroke-dasharray="0 0"/></g><g transform="translate(977.52, -64.99999999999999) rotate(0, 36.48, 0)" width="72.96" height="18"><text text-decoration="none" x="0.9799999999999969" fill="#4b4b4b" font-size="10pt" font-family="lt_regular"  y="17">Receptionist</text><text text-decoration="none" x="71.97999999999999" fill="#4b4b4b" font-size="10pt" font-family="noto_regular"  y="17"></text></g><g transform="translate(925, -35.999999999999986) rotate(0, 0, 0)" width="94.8" height="72"><text text-decoration="none" x="0" fill="#4b4b4b" font-size="10pt" font-family="lt_regular"  y="14">+Id:&#160;</text><text text-decoration="none" x="25" fill="#4b4b4b" font-size="10pt" font-family="lt_regular"  y="14">int</text><text text-decoration="none" x="40" fill="#4b4b4b" font-size="10pt" font-family="lt_regular"  y="14"></text><text text-decoration="none" x="0" fill="#4b4b4b" font-size="10pt" font-family="lt_regular"  y="33">+Name:&#160;</text><text text-decoration="none" x="48" fill="#4b4b4b" font-size="10pt" font-family="lt_regular"  y="33">string</text><text text-decoration="none" x="81" fill="#4b4b4b" font-size="10pt" font-family="lt_regular"  y="33"></text><text text-decoration="none" x="0" fill="#4b4b4b" font-size="10pt" font-family="lt_regular"  y="52">+Tel&#160;</text><text text-decoration="none" x="29" fill="#4b4b4b" font-size="10pt" font-family="lt_regular"  y="52">No:&#160;</text><text text-decoration="none" x="52" fill="#4b4b4b" font-size="10pt" font-family="lt_regular"  y="52">int</text><text text-decoration="none" x="67" fill="#4b4b4b" font-size="10pt" font-family="lt_regular"  y="52"></text><text text-decoration="none" x="0" fill="#4b4b4b" font-size="10pt" font-family="lt_regular"  y="74">+Address:&#160;</text><text text-decoration="none" x="61" fill="#4b4b4b" font-size="10pt" font-family="lt_regular"  y="74">string</text><text text-decoration="none" x="94" fill="#4b4b4b" font-size="10pt" font-family="noto_regular"  y="74"></text></g><g transform="translate(925, 47.000000000000014) rotate(0, 0, 0)" width="169.41" height="108"><text text-decoration="none" x="0" fill="#4b4b4b" font-size="10pt" font-family="lt_regular"  y="14">--</text><text text-decoration="none" x="10" fill="#4b4b4b" font-size="10pt" font-family="lt_regular"  y="14"></text><text text-decoration="none" x="0" fill="#4b4b4b" font-size="10pt" font-family="lt_regular"  y="33">+CheckRoomAvailibilty()&#160;</text><text text-decoration="none" x="0" fill="#4b4b4b" font-size="10pt" font-family="lt_regular"  y="52">:public</text><text text-decoration="none" x="36" fill="#4b4b4b" font-size="10pt" font-family="lt_regular"  y="52"></text><text text-decoration="none" x="0" fill="#4b4b4b" font-size="10pt" font-family="lt_regular"  y="71">+BookRoom()&#160;</text><text text-decoration="none" x="79" fill="#4b4b4b" font-size="10pt" font-family="lt_regular"  y="71">:&#160;</text><text text-decoration="none" x="85" fill="#4b4b4b" font-size="10pt" font-family="lt_regular"  y="71">public</text><text text-decoration="none" x="118" fill="#4b4b4b" font-size="10pt" font-family="lt_regular"  y="71"></text><text text-decoration="none" x="0" fill="#4b4b4b" font-size="10pt" font-family="lt_regular"  y="90">+GenerateBill()&#160;</text><text text-decoration="none" x="88" fill="#4b4b4b" font-size="10pt" font-family="lt_regular"  y="90">:public</text><text text-decoration="none" x="124" fill="#4b4b4b" font-size="10pt" font-family="lt_regular"  y="90"></text><text text-decoration="none" x="0" fill="#4b4b4b" font-size="10pt" font-family="lt_regular"  y="112">+AcceptCustomerFeedback()</text><text text-decoration="none" x="165" fill="#4b4b4b" font-size="10pt" font-family="noto_regular"  y="112"></text></g></g><g id="Va4rjKPnttd"><g transform="translate(920.0000000000001 260.00000000000017)"><rect x="0" y="0" width="180" height="160" rx="2" ry="2" fill="rgb(148,165,166)" stroke="#516263" stroke-width="2" stroke-linecap="round" stroke-linejoin="round" stroke-dasharray="0 0"/><path d="M 0,28 L 180,28 M 0,74.00999999999999 L 180,74.00999999999999" fill="rgb(148,165,166)" stroke="#516263" stroke-width="2" stroke-linecap="round" stroke-linejoin="round" stroke-dasharray="0 0"/></g><g transform="translate(989.895, 265.00000000000017) rotate(0, 20.105, 0)" width="40.21" height="18"><text text-decoration="none" x="0.6050000000000004" fill="#4b4b4b" font-size="10pt" font-family="lt_regular"  y="17">Rooms</text><text text-decoration="none" x="39.605000000000004" fill="#4b4b4b" font-size="10pt" font-family="noto_regular"  y="17"></text></g><g transform="translate(925.0000000000001, 294.00000000000017) rotate(0, 0, 0)" width="97.79" height="36.01"><text text-decoration="none" x="0" fill="#4b4b4b" font-size="10pt" font-family="lt_regular"  y="14">+Room&#160;</text><text text-decoration="none" x="44" fill="#4b4b4b" font-size="10pt" font-family="lt_regular"  y="14">No:&#160;</text><text text-decoration="none" x="67" fill="#4b4b4b" font-size="10pt" font-family="lt_regular"  y="14">int</text><text text-decoration="none" x="82" fill="#4b4b4b" font-size="10pt" font-family="lt_regular"  y="14"></text><text text-decoration="none" x="0" fill="#4b4b4b" font-size="10pt" font-family="lt_regular"  y="36">+Location:&#160;</text><text text-decoration="none" x="62" fill="#4b4b4b" font-size="10pt" font-family="lt_regular"  y="36">string</text><text text-decoration="none" x="95" fill="#4b4b4b" font-size="10pt" font-family="noto_regular"  y="36"></text></g><g transform="translate(925.0000000000001, 341.00000000000017) rotate(0, 0, 0)" width="138.74" height="90"><text text-decoration="none" x="0" fill="#4b4b4b" font-size="10pt" font-family="lt_regular"  y="14">+GuestInfo()&#160;</text><text text-decoration="none" x="75" fill="#4b4b4b" font-size="10pt" font-family="lt_regular"  y="14">:public</text><text text-decoration="none" x="111" fill="#4b4b4b" font-size="10pt" font-family="lt_regular"  y="14"></text><text text-decoration="none" x="0" fill="#4b4b4b" font-size="10pt" font-family="lt_regular"  y="33">+&#160;</text><text text-decoration="none" x="11" fill="#4b4b4b" font-size="10pt" font-family="lt_regular"  y="33">update&#160;</text><text text-decoration="none" x="53" fill="#4b4b4b" font-size="10pt" font-family="lt_regular"  y="33">Room()&#160;</text><text text-decoration="none" x="95" fill="#4b4b4b" font-size="10pt" font-family="lt_regular"  y="33">:public</text><text text-decoration="none" x="131" fill="#4b4b4b" font-size="10pt" font-family="lt_regular"  y="33"></text><text text-decoration="none" x="0" fill="#4b4b4b" font-size="10pt" font-family="lt_regular"  y="52">//&#160;</text><text text-decoration="none" x="15" fill="#4b4b4b" font-size="10pt" font-family="lt_regular"  y="52">Line&#160;</text><text text-decoration="none" x="42" fill="#4b4b4b" font-size="10pt" font-family="lt_regular"  y="52">break&#160;</text><text text-decoration="none" x="77" fill="#4b4b4b" font-size="10pt" font-family="lt_regular"  y="52">(\n)&#160;</text><text text-decoration="none" x="99" fill="#4b4b4b" font-size="10pt" font-family="lt_regular"  y="52">enter&#160;</text><text text-decoration="none" x="0" fill="#4b4b4b" font-size="10pt" font-family="lt_regular"  y="71">in-between&#160;</text><text text-decoration="none" x="68" fill="#4b4b4b" font-size="10pt" font-family="lt_regular"  y="71">text&#160;</text><text text-decoration="none" x="94" fill="#4b4b4b" font-size="10pt" font-family="lt_regular"  y="71">for&#160;</text><text text-decoration="none" x="114" fill="#4b4b4b" font-size="10pt" font-family="lt_regular"  y="71">line&#160;</text><text text-decoration="none" x="0" fill="#4b4b4b" font-size="10pt" font-family="lt_regular"  y="93">break</text><text text-decoration="none" x="32" fill="#4b4b4b" font-size="10pt" font-family="noto_regular"  y="93"></text></g></g><g id="7F04WrZVWNo"><g transform="translate(930.0000000000003 580)"><rect x="0" y="0" width="180" height="160" rx="2" ry="2" fill="rgb(148,165,166)" stroke="#516263" stroke-width="2" stroke-linecap="round" stroke-linejoin="round" stroke-dasharray="0 0"/><path d="M 0,28 L 180,28 M 0,74.00999999999999 L 180,74.00999999999999" fill="rgb(148,165,166)" stroke="#516263" stroke-width="2" stroke-linecap="round" stroke-linejoin="round" stroke-dasharray="0 0"/></g><g transform="translate(1010.9450000000005, 585) rotate(0, 9.055, 0)" width="18.11" height="18"><text text-decoration="none" x="0.5549999999999997" fill="#4b4b4b" font-size="10pt" font-family="lt_regular"  y="17">Bill</text><text text-decoration="none" x="17.555" fill="#4b4b4b" font-size="10pt" font-family="noto_regular"  y="17"></text></g><g transform="translate(935.0000000000003, 614) rotate(0, 0, 0)" width="139.52" height="36.01"><text text-decoration="none" x="0" fill="#4b4b4b" font-size="10pt" font-family="lt_regular"  y="14">+Bill&#160;</text><text text-decoration="none" x="28" fill="#4b4b4b" font-size="10pt" font-family="lt_regular"  y="14">No:&#160;</text><text text-decoration="none" x="51" fill="#4b4b4b" font-size="10pt" font-family="lt_regular"  y="14">int</text><text text-decoration="none" x="66" fill="#4b4b4b" font-size="10pt" font-family="lt_regular"  y="14"></text><text text-decoration="none" x="0" fill="#4b4b4b" font-size="10pt" font-family="lt_regular"  y="36">+CustomerName:&#160;</text><text text-decoration="none" x="105" fill="#4b4b4b" font-size="10pt" font-family="lt_regular"  y="36">string</text><text text-decoration="none" x="138" fill="#4b4b4b" font-size="10pt" font-family="noto_regular"  y="36"></text></g><g transform="translate(935.0000000000003, 661) rotate(0, 0, 0)" width="164.32" height="90"><text text-decoration="none" x="0" fill="#4b4b4b" font-size="10pt" font-family="lt_regular"  y="14">+GenerateBill():&#160;</text><text text-decoration="none" x="91" fill="#4b4b4b" font-size="10pt" font-family="lt_regular"  y="14">public</text><text text-decoration="none" x="124" fill="#4b4b4b" font-size="10pt" font-family="lt_regular"  y="14"></text><text text-decoration="none" x="0" fill="#4b4b4b" font-size="10pt" font-family="lt_regular"  y="33">//&#160;</text><text text-decoration="none" x="15" fill="#4b4b4b" font-size="10pt" font-family="lt_regular"  y="33">(--)&#160;</text><text text-decoration="none" x="34" fill="#4b4b4b" font-size="10pt" font-family="lt_regular"  y="33">This&#160;</text><text text-decoration="none" x="61" fill="#4b4b4b" font-size="10pt" font-family="lt_regular"  y="33">is&#160;</text><text text-decoration="none" x="73" fill="#4b4b4b" font-size="10pt" font-family="lt_regular"  y="33">a&#160;</text><text text-decoration="none" x="82" fill="#4b4b4b" font-size="10pt" font-family="lt_regular"  y="33">section&#160;</text><text text-decoration="none" x="126" fill="#4b4b4b" font-size="10pt" font-family="lt_regular"  y="33">break</text><text text-decoration="none" x="158" fill="#4b4b4b" font-size="10pt" font-family="lt_regular"  y="33"></text><text text-decoration="none" x="0" fill="#4b4b4b" font-size="10pt" font-family="lt_regular"  y="52">//&#160;</text><text text-decoration="none" x="15" fill="#4b4b4b" font-size="10pt" font-family="lt_regular"  y="52">Line&#160;</text><text text-decoration="none" x="42" fill="#4b4b4b" font-size="10pt" font-family="lt_regular"  y="52">break&#160;</text><text text-decoration="none" x="77" fill="#4b4b4b" font-size="10pt" font-family="lt_regular"  y="52">(\n)&#160;</text><text text-decoration="none" x="99" fill="#4b4b4b" font-size="10pt" font-family="lt_regular"  y="52">enter&#160;</text><text text-decoration="none" x="0" fill="#4b4b4b" font-size="10pt" font-family="lt_regular"  y="71">in-between&#160;</text><text text-decoration="none" x="68" fill="#4b4b4b" font-size="10pt" font-family="lt_regular"  y="71">text&#160;</text><text text-decoration="none" x="94" fill="#4b4b4b" font-size="10pt" font-family="lt_regular"  y="71">for&#160;</text><text text-decoration="none" x="114" fill="#4b4b4b" font-size="10pt" font-family="lt_regular"  y="71">line&#160;</text><text text-decoration="none" x="0" fill="#4b4b4b" font-size="10pt" font-family="lt_regular"  y="93">break</text><text text-decoration="none" x="32" fill="#4b4b4b" font-size="10pt" font-family="noto_regular"  y="93"></text></g></g><g id="8CKtGDS6F1Y"><g transform="translate(170 590)"><rect x="0" y="0" width="180" height="160" rx="2" ry="2" fill="rgb(148,165,166)" stroke="#516263" stroke-width="2" stroke-linecap="round" stroke-linejoin="round" stroke-dasharray="0 0"/><path d="M 0,28 L 180,28 M 0,74.00999999999999 L 180,74.00999999999999" fill="rgb(148,165,166)" stroke="#516263" stroke-width="2" stroke-linecap="round" stroke-linejoin="round" stroke-dasharray="0 0"/></g><g transform="translate(227.085, 595) rotate(0, 32.915, 0)" width="65.83" height="18"><text text-decoration="none" x="0.9149999999999991" fill="#4b4b4b" font-size="10pt" font-family="lt_regular"  y="17">Food&#160;</text><text text-decoration="none" x="31.915" fill="#4b4b4b" font-size="10pt" font-family="lt_regular"  y="17">Items</text><text text-decoration="none" x="64.91499999999999" fill="#4b4b4b" font-size="10pt" font-family="noto_regular"  y="17"></text></g><g transform="translate(175, 624) rotate(0, 0, 0)" width="85.66" height="36.01"><text text-decoration="none" x="0" fill="#4b4b4b" font-size="10pt" font-family="lt_regular"  y="14">+Id:&#160;</text><text text-decoration="none" x="25" fill="#4b4b4b" font-size="10pt" font-family="lt_regular"  y="14">int</text><text text-decoration="none" x="40" fill="#4b4b4b" font-size="10pt" font-family="lt_regular"  y="14"></text><text text-decoration="none" x="0" fill="#4b4b4b" font-size="10pt" font-family="lt_regular"  y="36">+Name:&#160;</text><text text-decoration="none" x="48" fill="#4b4b4b" font-size="10pt" font-family="lt_regular"  y="36">string&#160;</text><text text-decoration="none" x="84" fill="#4b4b4b" font-size="10pt" font-family="noto_regular"  y="36"></text></g><g transform="translate(175, 671) rotate(0, 0, 0)" width="164.32" height="90"><text text-decoration="none" x="0" fill="#4b4b4b" font-size="10pt" font-family="lt_regular"  y="14">UpdateFoodItems()&#160;</text><text text-decoration="none" x="112" fill="#4b4b4b" font-size="10pt" font-family="lt_regular"  y="14">:public</text><text text-decoration="none" x="148" fill="#4b4b4b" font-size="10pt" font-family="lt_regular"  y="14"></text><text text-decoration="none" x="0" fill="#4b4b4b" font-size="10pt" font-family="lt_regular"  y="33">//&#160;</text><text text-decoration="none" x="15" fill="#4b4b4b" font-size="10pt" font-family="lt_regular"  y="33">(--)&#160;</text><text text-decoration="none" x="34" fill="#4b4b4b" font-size="10pt" font-family="lt_regular"  y="33">This&#160;</text><text text-decoration="none" x="61" fill="#4b4b4b" font-size="10pt" font-family="lt_regular"  y="33">is&#160;</text><text text-decoration="none" x="73" fill="#4b4b4b" font-size="10pt" font-family="lt_regular"  y="33">a&#160;</text><text text-decoration="none" x="82" fill="#4b4b4b" font-size="10pt" font-family="lt_regular"  y="33">section&#160;</text><text text-decoration="none" x="126" fill="#4b4b4b" font-size="10pt" font-family="lt_regular"  y="33">break</text><text text-decoration="none" x="158" fill="#4b4b4b" font-size="10pt" font-family="lt_regular"  y="33"></text><text text-decoration="none" x="0" fill="#4b4b4b" font-size="10pt" font-family="lt_regular"  y="52">//&#160;</text><text text-decoration="none" x="15" fill="#4b4b4b" font-size="10pt" font-family="lt_regular"  y="52">Line&#160;</text><text text-decoration="none" x="42" fill="#4b4b4b" font-size="10pt" font-family="lt_regular"  y="52">break&#160;</text><text text-decoration="none" x="77" fill="#4b4b4b" font-size="10pt" font-family="lt_regular"  y="52">(\n)&#160;</text><text text-decoration="none" x="99" fill="#4b4b4b" font-size="10pt" font-family="lt_regular"  y="52">enter&#160;</text><text text-decoration="none" x="0" fill="#4b4b4b" font-size="10pt" font-family="lt_regular"  y="71">in-between&#160;</text><text text-decoration="none" x="68" fill="#4b4b4b" font-size="10pt" font-family="lt_regular"  y="71">text&#160;</text><text text-decoration="none" x="94" fill="#4b4b4b" font-size="10pt" font-family="lt_regular"  y="71">for&#160;</text><text text-decoration="none" x="114" fill="#4b4b4b" font-size="10pt" font-family="lt_regular"  y="71">line&#160;</text><text text-decoration="none" x="0" fill="#4b4b4b" font-size="10pt" font-family="lt_regular"  y="93">break</text><text text-decoration="none" x="32" fill="#4b4b4b" font-size="10pt" font-family="noto_regular"  y="93"></text></g></g><g id="hF2gMyM6MgT"><mask id="25c0e" x="326" y="13" width="238" height="51" maskUnits="userSpaceOnUse"><rect x="326" y="13" width="238" height="51" fill="white" /><rect x="360.4909574468086" y="15" width="22.55" height="24" fill="black" /><rect x="502.7506464811784" y="38" width="24.61" height="24" fill="black" /></mask><g mask="url(#25c0e)"><path d="M 340,27 L 445,27 L 445,39 L 445,50 L 550,50" fill="none" stroke="#354860" stroke-width="2" stroke-linecap="round" stroke-linejoin="round" stroke-dasharray="0 0"/></g><g transform="translate(363.4909574468086, 18)" width="16.55" height="18"><text text-decoration="none" x="0" fill="#4b4b4b" font-size="10pt" font-family="lt_regular"  y="17">1.*</text><text text-decoration="none" x="17" fill="#4b4b4b" font-size="10pt" font-family="noto_regular"  y="17"></text></g><g transform="translate(505.7506464811784, 41)" width="18.61" height="18"><text text-decoration="none" x="0" fill="#4b4b4b" font-size="10pt" font-family="lt_regular"  y="17">0.1</text><text text-decoration="none" x="19" fill="#4b4b4b" font-size="10pt" font-family="noto_regular"  y="17"></text></g></g><g id="jUH0z8lo1sf"><mask id="9c6fe" x="326" y="61" width="238" height="210" maskUnits="userSpaceOnUse"><rect x="326" y="61" width="238" height="210" fill="white" /><rect x="384.37222585924724" y="63" width="13.74" height="24" fill="black" /></mask><g mask="url(#9c6fe)"><path d="M 550,257 L 445,257 L 445,166 L 445,75 L 340,75" fill="none" stroke="#516263" stroke-width="2" stroke-linecap="round" stroke-linejoin="round" stroke-dasharray="0 0"/></g><g transform="translate(387.37222585924724, 66)" width="7.74" height="18"><text text-decoration="none" x="0" fill="#4b4b4b" font-size="10pt" font-family="lt_regular"  y="17">1</text><text text-decoration="none" x="8" fill="#4b4b4b" font-size="10pt" font-family="noto_regular"  y="17"></text></g></g><g id="gFKI0E0Xs10"><mask id="fd70e" x="236" y="110" width="28" height="164" maskUnits="userSpaceOnUse"><rect x="236" y="110" width="28" height="164" fill="white" /><rect x="237.69499999999994" y="142" width="24.61" height="24" fill="black" /><rect x="237.695" y="214.17839607201307" width="24.61" height="24" fill="black" /></mask><g mask="url(#fd70e)"><path d="M 250,124 L 249.99999999999991,182 Q 249.99999999999991,182.0000000000001 250,192 Q 250,202 250,202 L 250,260" fill="none" stroke="#516263" stroke-width="2" stroke-linecap="round" stroke-linejoin="round" stroke-dasharray="0 0"/></g><g transform="translate(240.69499999999994, 145)" width="18.61" height="18"><text text-decoration="none" x="0" fill="#4b4b4b" font-size="10pt" font-family="lt_regular"  y="17">1.1</text><text text-decoration="none" x="19" fill="#4b4b4b" font-size="10pt" font-family="noto_regular"  y="17"></text></g><g transform="translate(240.695, 217.17839607201307)" width="18.61" height="18"><text text-decoration="none" x="0" fill="#4b4b4b" font-size="10pt" font-family="lt_regular"  y="17">1.1</text><text text-decoration="none" x="19" fill="#4b4b4b" font-size="10pt" font-family="noto_regular"  y="17"></text></g></g><g id="zzbtvsK1JgW"><mask id="d6f2f" x="281" y="129" width="700" height="145" maskUnits="userSpaceOnUse"><rect x="281" y="129" width="700" height="145" fill="white" /><rect x="899.4630529238574" y="140.37336177250512" width="24.61" height="24" fill="black" /><rect x="282.695" y="179.54029245226118" width="24.61" height="24" fill="black" /></mask><g mask="url(#d6f2f)"><path d="M 295,260 L 295,152.44680851063828 L 631,152 L 967,152.44680851063828 L 967,143" fill="none" stroke="#516263" stroke-width="2" stroke-linecap="round" stroke-linejoin="round" stroke-dasharray="0 0"/></g><g transform="translate(902.4630529238574, 143.37336177250512)" width="18.61" height="18"><text text-decoration="none" x="0" fill="#4b4b4b" font-size="10pt" font-family="lt_regular"  y="17">1.1</text><text text-decoration="none" x="19" fill="#4b4b4b" font-size="10pt" font-family="noto_regular"  y="17"></text></g><g transform="translate(285.695, 182.54029245226118)" width="18.61" height="18"><text text-decoration="none" x="0" fill="#4b4b4b" font-size="10pt" font-family="lt_regular"  y="17">1.1</text><text text-decoration="none" x="19" fill="#4b4b4b" font-size="10pt" font-family="noto_regular"  y="17"></text></g></g><g id="8h8b6R7HX9c"><mask id="636c5" x="716" y="309" width="218" height="45" maskUnits="userSpaceOnUse"><rect x="716" y="309" width="218" height="45" fill="white" /><rect x="765.6802700491" y="311" width="24.61" height="24" fill="black" /></mask><g mask="url(#636c5)"><path d="M 730,323 L 825,323 L 825,332 L 825,340 L 920,340" fill="none" stroke="#516263" stroke-width="2" stroke-linecap="round" stroke-linejoin="round" stroke-dasharray="0 0"/></g><g transform="translate(768.6802700491, 314)" width="18.61" height="18"><text text-decoration="none" x="0" fill="#4b4b4b" font-size="10pt" font-family="lt_regular"  y="17">1.1</text><text text-decoration="none" x="19" fill="#4b4b4b" font-size="10pt" font-family="noto_regular"  y="17"></text></g></g><g id="KAG5XF3pTw1"><mask id="8db4d" x="671" y="442" width="273" height="192" maskUnits="userSpaceOnUse"><rect x="671" y="442" width="273" height="192" fill="white" /><rect x="672.695" y="545.2749590834696" width="24.61" height="24" fill="black" /></mask><g mask="url(#8db4d)"><path d="M 685,456 L 685,620 L 930,620" fill="none" stroke="#516263" stroke-width="2" stroke-linecap="round" stroke-linejoin="round" stroke-dasharray="0 0"/></g><g transform="translate(675.695, 548.2749590834696)" width="18.61" height="18"><text text-decoration="none" x="0" fill="#4b4b4b" font-size="10pt" font-family="lt_regular"  y="17">1.1</text><text text-decoration="none" x="19" fill="#4b4b4b" font-size="10pt" font-family="noto_regular"  y="17"></text></g></g><g id="qix0KAWmt6M"><mask id="c9b4b" x="236" y="441" width="38" height="163" maskUnits="userSpaceOnUse"><rect x="236" y="441" width="38" height="163" fill="white" /><rect x="242.695" y="511" width="24.61" height="24" fill="black" /></mask><g mask="url(#c9b4b)"><path d="M 260,590 L 260,522.5 L 255,523 L 250,522.5 L 250,455" fill="none" stroke="#516263" stroke-width="2" stroke-linecap="round" stroke-linejoin="round" stroke-dasharray="0 0"/></g><g transform="translate(245.695, 514)" width="18.61" height="18"><text text-decoration="none" x="0" fill="#4b4b4b" font-size="10pt" font-family="lt_regular"  y="17">1.1</text><text text-decoration="none" x="19" fill="#4b4b4b" font-size="10pt" font-family="noto_regular"  y="17"></text></g></g><g id="pr1y5i8V2K1"><mask id="54247" x="326" y="376" width="238" height="44" maskUnits="userSpaceOnUse"><rect x="326" y="376" width="238" height="44" fill="white" /><rect x="432.695" y="386" width="24.61" height="24" fill="black" /></mask><g mask="url(#54247)"><path d="M 340,406 L 445,406 L 445,398 L 445,390 L 550,390" fill="none" stroke="#516263" stroke-width="2" stroke-linecap="round" stroke-linejoin="round" stroke-dasharray="0 0"/></g><g transform="translate(435.695, 389)" width="18.61" height="18"><text text-decoration="none" x="0" fill="#4b4b4b" font-size="10pt" font-family="lt_regular"  y="17">1.1</text><text text-decoration="none" x="19" fill="#4b4b4b" font-size="10pt" font-family="noto_regular"  y="17"></text></g></g><g id="GRnE3L29iaf"><mask id="72e93" x="281" y="366" width="653" height="123" maskUnits="userSpaceOnUse"><rect x="281" y="366" width="653" height="123" fill="white" /><rect x="359.46095744680855" y="463" width="24.61" height="24" fill="black" /><rect x="877.695" y="368" width="24.61" height="24" fill="black" /><rect x="579.7318821603928" y="463" width="29.24" height="24" fill="black" /><rect x="736.933191489362" y="463" width="29.24" height="24" fill="black" /></mask><g mask="url(#72e93)"><path d="M 295,455 L 295,475 L 578,475 L 861.4549918166939,475 L 861,428 L 861.4549918166939,380 L 920,380" fill="none" stroke="#516263" stroke-width="2" stroke-linecap="round" stroke-linejoin="round" stroke-dasharray="0 0"/></g><g transform="translate(362.46095744680855, 466)" width="18.61" height="18"><text text-decoration="none" x="0" fill="#4b4b4b" font-size="10pt" font-family="lt_regular"  y="17">1.1</text><text text-decoration="none" x="19" fill="#4b4b4b" font-size="10pt" font-family="noto_regular"  y="17"></text></g><g transform="translate(880.695, 371)" width="18.61" height="18"><text text-decoration="none" x="0" fill="#4b4b4b" font-size="10pt" font-family="lt_regular"  y="17">1.1</text><text text-decoration="none" x="19" fill="#4b4b4b" font-size="10pt" font-family="noto_regular"  y="17"></text></g><g transform="translate(582.7318821603928, 466)" width="23.24" height="18"><text text-decoration="none" x="0.11999999999999922" fill="#4b4b4b" font-size="10pt" font-family="lt_regular"  y="17">text</text><text text-decoration="none" x="23.119999999999997" fill="#4b4b4b" font-size="10pt" font-family="noto_regular"  y="17"></text></g><g transform="translate(739.933191489362, 466)" width="23.24" height="18"><text text-decoration="none" x="0.11999999999999922" fill="#4b4b4b" font-size="10pt" font-family="lt_regular"  y="17">text</text><text text-decoration="none" x="23.119999999999997" fill="#4b4b4b" font-size="10pt" font-family="noto_regular"  y="17"></text></g></g><g id="C5CxQW4uGzV"><mask id="4a525" x="326" y="344" width="618" height="370" maskUnits="userSpaceOnUse"><rect x="326" y="344" width="618" height="370" fill="white" /><rect x="358.06979703010387" y="346" width="24.61" height="24" fill="black" /></mask><g mask="url(#4a525)"><path d="M 340,358 L 510.8821603927987,358 L 511,529 L 510.8821603927987,700 L 930,700" fill="none" stroke="#516263" stroke-width="2" stroke-linecap="round" stroke-linejoin="round" stroke-dasharray="0 0"/></g><g transform="translate(361.06979703010387, 349)" width="18.61" height="18"><text text-decoration="none" x="0" fill="#4b4b4b" font-size="10pt" font-family="lt_regular"  y="17">1.1</text><text text-decoration="none" x="19" fill="#4b4b4b" font-size="10pt" font-family="noto_regular"  y="17"></text></g></g></svg>