<svg xmlns="http://www.w3.org/2000/svg" xmlns:svg="http://www.w3.org/2000/svg" xmlns:xlink="http://www.w3.org/1999/xlink" version="1.0" height="780.0000000000001pt" width="839.9999999999998pt" viewBox="285 -3 847.9999999999998 786.0000000000001" ><defs><style type="text/css">
            @font-face {
                font-family: 'lt_regular';
                src: url('https://app.creately.com/diagram/assets/fonts/lato/lt-regular-webfont.woff2') format('woff2'),
                    url('https://app.creately.com/diagram/assets/fonts/lato/lt-regular-webfont.woff') format('woff');
                font-weight: normal;
                font-style: normal;
            }
            @font-face {
                font-family: 'noto_regular';
                src: url('https://app.creately.com/diagram/assets/fonts/noto/noto-regular.woff') format('woff'),
                     url('https://app.creately.com/diagram/assets/fonts/noto/noto-regular.woff2') format('woff2');
                font-weight: normal;
                font-style: normal;
            }
        p {
            margin: 0;
        }
        </style></defs><defs><style>
            span{ display: inline-block; }
        </style></defs><g id="wAO5uJ7xtgZ"><g transform="translate(290 0)"><rect x="0" y="0" width="109.99999999999997" height="29" fill="rgb(47,47,47)" stroke="#2F2F2F" stroke-width="2" stroke-linecap="round" stroke-linejoin="round" stroke-dasharray="0 0"/><path d="M 54.999999999999986,29 L 54.999999999999986,780.0000000000001" fill="rgb(47,47,47)" stroke="#2F2F2F" stroke-width="2" stroke-linecap="round" stroke-linejoin="round" stroke-dasharray="3 3"/><rect x="0" y="0" width="109.99999999999997" height="780.0000000000001" fill="rgba(255,255,255,0.01)" stroke="rgba(255,255,255,0.01)" stroke-width="2" stroke-linecap="round" stroke-linejoin="round" stroke-dasharray="3 3"/></g><g transform="translate(316.5, 5) rotate(0, 28.5, 0)" width="57" height="19"><text text-decoration="none" x="0" fill="#ffffff" font-size="10pt" font-family="lt_regular"  y="15">Customer</text><text text-decoration="none" x="57" fill="#4b4b4b" font-size="10pt" font-family="noto_regular"  y="15"></text></g></g><g id="FgJqIZDOeU5"><g transform="translate(549.9999999999998 0)"><rect x="0" y="0" width="109.99999999999997" height="29" fill="rgb(47,47,47)" stroke="#2F2F2F" stroke-width="2" stroke-linecap="round" stroke-linejoin="round" stroke-dasharray="0 0"/><path d="M 54.999999999999986,29 L 54.999999999999986,780.0000000000001" fill="rgb(47,47,47)" stroke="#2F2F2F" stroke-width="2" stroke-linecap="round" stroke-linejoin="round" stroke-dasharray="3 3"/><rect x="0" y="0" width="109.99999999999997" height="780.0000000000001" fill="rgba(255,255,255,0.01)" stroke="rgba(255,255,255,0.01)" stroke-width="2" stroke-linecap="round" stroke-linejoin="round" stroke-dasharray="3 3"/></g><g transform="translate(578.4999999999998, 5) rotate(0, 26.5, 0)" width="53" height="19"><text text-decoration="none" x="0.5" fill="#ffffff" font-size="10pt" font-family="lt_regular"  y="15">Web&#160;</text><text text-decoration="none" x="30.5" fill="#ffffff" font-size="10pt" font-family="lt_regular"  y="15">Site</text><text text-decoration="none" x="52.5" fill="#4b4b4b" font-size="10pt" font-family="noto_regular"  y="15"></text></g></g><g id="M5dgy56YxxL"><g transform="translate(810 0)"><rect x="0" y="0" width="109.99999999999997" height="29" fill="rgb(47,47,47)" stroke="#2F2F2F" stroke-width="2" stroke-linecap="round" stroke-linejoin="round" stroke-dasharray="0 0"/><path d="M 54.999999999999986,29 L 54.999999999999986,780.0000000000001" fill="rgb(47,47,47)" stroke="#2F2F2F" stroke-width="2" stroke-linecap="round" stroke-linejoin="round" stroke-dasharray="3 3"/><rect x="0" y="0" width="109.99999999999997" height="780.0000000000001" fill="rgba(255,255,255,0.01)" stroke="rgba(255,255,255,0.01)" stroke-width="2" stroke-linecap="round" stroke-linejoin="round" stroke-dasharray="3 3"/></g><g transform="translate(837.5, 5) rotate(0, 27.5, 0)" width="55" height="19"><text text-decoration="none" x="1" fill="#ffffff" font-size="10pt" font-family="lt_regular"  y="15">Database</text><text text-decoration="none" x="54" fill="#4b4b4b" font-size="10pt" font-family="noto_regular"  y="15"></text></g></g><g id="VoXPyS7LcXo"><g transform="translate(1019.9999999999998 0)"><rect x="0" y="0" width="109.99999999999997" height="47" fill="rgb(47,47,47)" stroke="#2F2F2F" stroke-width="2" stroke-linecap="round" stroke-linejoin="round" stroke-dasharray="0 0"/><path d="M 54.999999999999986,47 L 54.999999999999986,780.0000000000001" fill="rgb(47,47,47)" stroke="#2F2F2F" stroke-width="2" stroke-linecap="round" stroke-linejoin="round" stroke-dasharray="3 3"/><rect x="0" y="0" width="109.99999999999997" height="780.0000000000001" fill="rgba(255,255,255,0.01)" stroke="rgba(255,255,255,0.01)" stroke-width="2" stroke-linecap="round" stroke-linejoin="round" stroke-dasharray="3 3"/></g><g transform="translate(1042.9999999999998, 5) rotate(0, 32, 0)" width="64" height="37"><text text-decoration="none" x="0.5" fill="#ffffff" font-size="10pt" font-family="lt_regular"  y="14">Credit&#160;</text><text text-decoration="none" x="39.5" fill="#ffffff" font-size="10pt" font-family="lt_regular"  y="14">card&#160;</text><text text-decoration="none" x="11" fill="#ffffff" font-size="10pt" font-family="lt_regular"  y="33">system</text><text text-decoration="none" x="53" fill="#4b4b4b" font-size="10pt" font-family="noto_regular"  y="33"></text></g></g><g id="ATKhBl7SzwX"><g transform="translate(330 49.99999999999997)"><rect x="0" y="0" width="20" height="680" fill="rgb(9,149,206)" stroke="#0995CE" stroke-width="2" stroke-linecap="round" stroke-linejoin="round" stroke-dasharray="0 0"/></g></g><g id="uL29GSHXjvs"><g transform="translate(590 49.99999999999997)"><rect x="0" y="0" width="20" height="679.9999999999998" fill="rgb(141,161,59)" stroke="#8DA13B" stroke-width="2" stroke-linecap="round" stroke-linejoin="round" stroke-dasharray="0 0"/></g></g><g id="tcX9eKUYyYf"><g transform="translate(849.9999999999999 50.000000000000014)"><rect x="0" y="0" width="20" height="59.99999999999999" fill="rgb(242,175,29)" stroke="#F2AF1D" stroke-width="2" stroke-linecap="round" stroke-linejoin="round" stroke-dasharray="0 0"/></g></g><g id="DLuLZ5DaLue"><g transform="translate(849.9999999999999 310)"><rect x="0" y="0" width="20" height="90.00000000000003" fill="rgb(242,175,29)" stroke="#F2AF1D" stroke-width="2" stroke-linecap="round" stroke-linejoin="round" stroke-dasharray="0 0"/></g></g><g id="E51hMWp6Kbm"><g transform="translate(1060 540)"><rect x="0" y="0" width="20" height="49.999999999999986" fill="rgb(192,35,44)" stroke="#C0232C" stroke-width="2" stroke-linecap="round" stroke-linejoin="round" stroke-dasharray="0 0"/></g></g><g id="2aIC1n3dNGR"><mask id="263f2" x="336" y="66" width="268" height="28" maskUnits="userSpaceOnUse"><rect x="336" y="66" width="268" height="28" fill="white" /><rect x="420.5" y="67.5" width="99" height="25" fill="black" /></mask><g mask="url(#263f2)"><path d="M 350,80 L 590,80" fill="none" stroke="#9A9A9A" stroke-width="2" stroke-linecap="round" stroke-linejoin="round"/><path d="M 590,80 L 581.304347826087,74.25 L 581.304347826087,85.75 Z" fill="rgb(154,154,154)" stroke="#9A9A9A" stroke-width="2" stroke-linecap="round" stroke-linejoin="round"/></g><g transform="translate(423.5, 70.5)" width="93" height="19"><text text-decoration="none" x="1" fill="rgb(84, 84, 84)" font-size="10pt" font-family="lt_regular"  y="15">1.Click&#160;</text><text text-decoration="none" x="43" fill="rgb(84, 84, 84)" font-size="10pt" font-family="lt_regular"  y="15">on&#160;</text><text text-decoration="none" x="60" fill="rgb(84, 84, 84)" font-size="10pt" font-family="lt_regular"  y="15">menu</text><text text-decoration="none" x="92" fill="#4b4b4b" font-size="10pt" font-family="noto_regular"  y="15"></text></g></g><g id="3YahnY7yAy4"><mask id="97775" x="596" y="66" width="268" height="28" maskUnits="userSpaceOnUse"><rect x="596" y="66" width="268" height="28" fill="white" /><rect x="680" y="67.5" width="100" height="25" fill="black" /></mask><g mask="url(#97775)"><path d="M 610,80 L 720,79.99999999999997 Q 720,79.99999999999997 730,80 Q 740,80.00000000000001 740,80.00000000000001 L 850,80" fill="none" stroke="#9A9A9A" stroke-width="2" stroke-linecap="round" stroke-linejoin="round"/><path d="M 850,80 L 841.304347826087,74.25 L 841.304347826087,85.75 Z" fill="rgb(154,154,154)" stroke="#9A9A9A" stroke-width="2" stroke-linecap="round" stroke-linejoin="round"/></g><g transform="translate(683, 70.5)" width="94" height="19"><text text-decoration="none" x="0.5" fill="rgb(84, 84, 84)" font-size="10pt" font-family="lt_regular"  y="15">2.Request&#160;</text><text text-decoration="none" x="61.5" fill="rgb(84, 84, 84)" font-size="10pt" font-family="lt_regular"  y="15">menu</text><text text-decoration="none" x="93.5" fill="#4b4b4b" font-size="10pt" font-family="noto_regular"  y="15"></text></g></g><g id="a2Fowm8kNvF"><mask id="dba2f" x="596" y="46" width="268" height="28" maskUnits="userSpaceOnUse"><rect x="596" y="46" width="268" height="28" fill="white" /><rect x="682.5" y="47.5" width="95" height="25" fill="black" /></mask><g mask="url(#dba2f)"><path d="M 610,60 L 720,59.99999999999997 Q 720,59.99999999999997 730,60 Q 740,60.000000000000014 740,60.000000000000014 L 850,60" fill="none" stroke="#9A9A9A" stroke-width="2" stroke-linecap="round" stroke-linejoin="round"/><path d="M 850,60 L 841.304347826087,54.25 L 841.304347826087,65.75 Z" fill="rgb(154,154,154)" stroke="#9A9A9A" stroke-width="2" stroke-linecap="round" stroke-linejoin="round"/></g><g transform="translate(685.5, 50.5)" width="89" height="19"><text text-decoration="none" x="0.5" fill="rgb(84, 84, 84)" font-size="10pt" font-family="lt_regular"  y="15">3.&#160;</text><text text-decoration="none" x="14.5" fill="rgb(84, 84, 84)" font-size="10pt" font-family="lt_regular"  y="15">Return&#160;</text><text text-decoration="none" x="56.5" fill="rgb(84, 84, 84)" font-size="10pt" font-family="lt_regular"  y="15">menu</text><text text-decoration="none" x="88.5" fill="#4b4b4b" font-size="10pt" font-family="noto_regular"  y="15"></text></g></g><g id="0RmCfgAgaNc"><mask id="ad8f8" x="336" y="126" width="268" height="28" maskUnits="userSpaceOnUse"><rect x="336" y="126" width="268" height="28" fill="white" /><rect x="422" y="127.5" width="96" height="25" fill="black" /></mask><g mask="url(#ad8f8)"><path d="M 350,140 L 590,140" fill="none" stroke="#9A9A9A" stroke-width="2" stroke-linecap="round" stroke-linejoin="round"/><path d="M 590,140 L 581.304347826087,134.25 L 581.304347826087,145.75 Z" fill="rgb(154,154,154)" stroke="#9A9A9A" stroke-width="2" stroke-linecap="round" stroke-linejoin="round"/></g><g transform="translate(425, 130.5)" width="90" height="19"><text text-decoration="none" x="1" fill="rgb(84, 84, 84)" font-size="10pt" font-family="lt_regular"  y="15">4.Display&#160;</text><text text-decoration="none" x="57" fill="rgb(84, 84, 84)" font-size="10pt" font-family="lt_regular"  y="15">menu</text><text text-decoration="none" x="89" fill="#4b4b4b" font-size="10pt" font-family="noto_regular"  y="15"></text></g></g><g id="XsLrh3jULa5"><mask id="db9fe" x="336" y="166" width="268" height="28" maskUnits="userSpaceOnUse"><rect x="336" y="166" width="268" height="28" fill="white" /><rect x="424" y="159" width="92" height="42" fill="black" /></mask><g mask="url(#db9fe)"><path d="M 350,180 L 590,180" fill="none" stroke="#9A9A9A" stroke-width="2" stroke-linecap="round" stroke-linejoin="round"/><path d="M 590,180 L 581.304347826087,174.25 L 581.304347826087,185.75 Z" fill="rgb(154,154,154)" stroke="#9A9A9A" stroke-width="2" stroke-linecap="round" stroke-linejoin="round"/></g><g transform="translate(427, 162)" width="86" height="36"><text text-decoration="none" x="1" fill="rgb(84, 84, 84)" font-size="10pt" font-family="lt_regular"  y="14">5.Choose&#160;</text><text text-decoration="none" x="58" fill="rgb(84, 84, 84)" font-size="10pt" font-family="lt_regular"  y="14">meal</text><text text-decoration="none" x="85" fill="rgb(84, 84, 84)" font-size="10pt" font-family="lt_regular"  y="14"></text><text text-decoration="none" x="43" fill="#4b4b4b" font-size="10pt" font-family="noto_regular"  y="33"></text></g></g><g id="5Bce6TKlzc4"><mask id="277d8" x="336" y="186" width="268" height="28" maskUnits="userSpaceOnUse"><rect x="336" y="186" width="268" height="28" fill="white" /><rect x="385.5" y="187.5" width="169" height="25" fill="black" /></mask><g mask="url(#277d8)"><path d="M 350,200 L 590,200" fill="none" stroke="#9A9A9A" stroke-width="2" stroke-linecap="round" stroke-linejoin="round"/><path d="M 590,200 L 581.304347826087,194.25 L 581.304347826087,205.75 Z" fill="rgb(154,154,154)" stroke="#9A9A9A" stroke-width="2" stroke-linecap="round" stroke-linejoin="round"/></g><g transform="translate(388.5, 190.5)" width="163" height="19"><text text-decoration="none" x="2" fill="rgb(84, 84, 84)" font-size="10pt" font-family="lt_regular"  y="15">6.Click&#160;</text><text text-decoration="none" x="44" fill="rgb(84, 84, 84)" font-size="10pt" font-family="lt_regular"  y="15">shopping&#160;</text><text text-decoration="none" x="98" fill="rgb(84, 84, 84)" font-size="10pt" font-family="lt_regular"  y="15">cart&#160;</text><text text-decoration="none" x="123" fill="rgb(84, 84, 84)" font-size="10pt" font-family="lt_regular"  y="15">button</text><text text-decoration="none" x="161" fill="#4b4b4b" font-size="10pt" font-family="noto_regular"  y="15"></text></g></g><g id="UoK8M6xUWBU"><mask id="f8dc8" x="336" y="206" width="268" height="28" maskUnits="userSpaceOnUse"><rect x="336" y="206" width="268" height="28" fill="white" /><rect x="407.5" y="207.5" width="125" height="25" fill="black" /></mask><g mask="url(#f8dc8)"><path d="M 350,220 L 590,220" fill="none" stroke="#9A9A9A" stroke-width="2" stroke-linecap="round" stroke-linejoin="round"/><path d="M 590,220 L 581.304347826087,214.25 L 581.304347826087,225.75 Z" fill="rgb(154,154,154)" stroke="#9A9A9A" stroke-width="2" stroke-linecap="round" stroke-linejoin="round"/></g><g transform="translate(410.5, 210.5)" width="119" height="19"><text text-decoration="none" x="1" fill="rgb(84, 84, 84)" font-size="10pt" font-family="lt_regular"  y="15">7.Display&#160;</text><text text-decoration="none" x="57" fill="rgb(84, 84, 84)" font-size="10pt" font-family="lt_regular"  y="15">order&#160;</text><text text-decoration="none" x="91" fill="rgb(84, 84, 84)" font-size="10pt" font-family="lt_regular"  y="15">page</text><text text-decoration="none" x="118" fill="#4b4b4b" font-size="10pt" font-family="noto_regular"  y="15"></text></g></g><g id="b6BMdMJnhfE"><mask id="9c995" x="336" y="226" width="268" height="28" maskUnits="userSpaceOnUse"><rect x="336" y="226" width="268" height="28" fill="white" /><rect x="396.5" y="227.5" width="147" height="25" fill="black" /></mask><g mask="url(#9c995)"><path d="M 350,240 L 590,240" fill="none" stroke="#9A9A9A" stroke-width="2" stroke-linecap="round" stroke-linejoin="round"/><path d="M 590,240 L 581.304347826087,234.25 L 581.304347826087,245.75 Z" fill="rgb(154,154,154)" stroke="#9A9A9A" stroke-width="2" stroke-linecap="round" stroke-linejoin="round"/></g><g transform="translate(399.5, 230.5)" width="141" height="19"><text text-decoration="none" x="1.5" fill="rgb(84, 84, 84)" font-size="10pt" font-family="lt_regular"  y="15">8.Click&#160;</text><text text-decoration="none" x="43.5" fill="rgb(84, 84, 84)" font-size="10pt" font-family="lt_regular"  y="15">check&#160;</text><text text-decoration="none" x="79.5" fill="rgb(84, 84, 84)" font-size="10pt" font-family="lt_regular"  y="15">out&#160;</text><text text-decoration="none" x="101.5" fill="rgb(84, 84, 84)" font-size="10pt" font-family="lt_regular"  y="15">button</text><text text-decoration="none" x="139.5" fill="#4b4b4b" font-size="10pt" font-family="noto_regular"  y="15"></text></g></g><g id="ZmQl1UrZDRh"><mask id="c79a3" x="336" y="246" width="268" height="28" maskUnits="userSpaceOnUse"><rect x="336" y="246" width="268" height="28" fill="white" /><rect x="415" y="247.5" width="110" height="25" fill="black" /></mask><g mask="url(#c79a3)"><path d="M 350,260 L 470,260 Q 479.99999999999994,259.99999999999994 480,259.99999999999994 L 590,260" fill="none" stroke="#9A9A9A" stroke-width="2" stroke-linecap="round" stroke-linejoin="round"/><path d="M 590,260 L 581.304347826087,254.25 L 581.304347826087,265.75 Z" fill="rgb(154,154,154)" stroke="#9A9A9A" stroke-width="2" stroke-linecap="round" stroke-linejoin="round"/></g><g transform="translate(418, 250.5)" width="104" height="19"><text text-decoration="none" x="0.5" fill="rgb(84, 84, 84)" font-size="10pt" font-family="lt_regular"  y="15">9.Request&#160;</text><text text-decoration="none" x="61.5" fill="rgb(84, 84, 84)" font-size="10pt" font-family="lt_regular"  y="15">to&#160;</text><text text-decoration="none" x="76.5" fill="rgb(84, 84, 84)" font-size="10pt" font-family="lt_regular"  y="15">login</text><text text-decoration="none" x="103.5" fill="#4b4b4b" font-size="10pt" font-family="noto_regular"  y="15"></text></g></g><g id="YGehifw1c2o"><mask id="6c58f" x="336" y="286" width="268" height="28" maskUnits="userSpaceOnUse"><rect x="336" y="286" width="268" height="28" fill="white" /><rect x="387.5" y="278.5" width="165" height="43" fill="black" /></mask><g mask="url(#6c58f)"><path d="M 350,300 L 590,300" fill="none" stroke="#9A9A9A" stroke-width="2" stroke-linecap="round" stroke-linejoin="round"/><path d="M 590,300 L 581.304347826087,294.25 L 581.304347826087,305.75 Z" fill="rgb(154,154,154)" stroke="#9A9A9A" stroke-width="2" stroke-linecap="round" stroke-linejoin="round"/></g><g transform="translate(390.5, 281.5)" width="159" height="37"><text text-decoration="none" x="2" fill="rgb(84, 84, 84)" font-size="10pt" font-family="lt_regular"  y="14">10.Enter&#160;</text><text text-decoration="none" x="56" fill="rgb(84, 84, 84)" font-size="10pt" font-family="lt_regular"  y="14">account&#160;</text><text text-decoration="none" x="103" fill="rgb(84, 84, 84)" font-size="10pt" font-family="lt_regular"  y="14">name&#160;</text><text text-decoration="none" x="137" fill="rgb(84, 84, 84)" font-size="10pt" font-family="lt_regular"  y="14">and</text><text text-decoration="none" x="157" fill="rgb(84, 84, 84)" font-size="10pt" font-family="lt_regular"  y="14"></text><text text-decoration="none" x="51" fill="rgb(84, 84, 84)" font-size="10pt" font-family="lt_regular"  y="33">password</text><text text-decoration="none" x="108" fill="#4b4b4b" font-size="10pt" font-family="noto_regular"  y="33"></text></g></g><g id="ERaoGz9XXii"><mask id="7ce0c" x="596" y="306" width="268" height="28" maskUnits="userSpaceOnUse"><rect x="596" y="306" width="268" height="28" fill="white" /><rect x="676.5" y="307.5" width="107" height="25" fill="black" /></mask><g mask="url(#7ce0c)"><path d="M 610,320 L 850,320" fill="none" stroke="#9A9A9A" stroke-width="2" stroke-linecap="round" stroke-linejoin="round"/><path d="M 850,320 L 841.304347826087,314.25 L 841.304347826087,325.75 Z" fill="rgb(154,154,154)" stroke="#9A9A9A" stroke-width="2" stroke-linecap="round" stroke-linejoin="round"/></g><g transform="translate(679.5, 310.5)" width="101" height="19"><text text-decoration="none" x="23" fill="rgb(84, 84, 84)" font-size="10pt" font-family="lt_regular"  y="14">11.Verify&#160;</text><text text-decoration="none" x="28.5" fill="rgb(84, 84, 84)" font-size="10pt" font-family="lt_regular"  y="33">account</text><text text-decoration="none" x="72.5" fill="#4b4b4b" font-size="10pt" font-family="noto_regular"  y="33"></text></g></g><g id="XgEYZxIusnR"><mask id="278ce" x="596" y="326" width="268" height="28" maskUnits="userSpaceOnUse"><rect x="596" y="326" width="268" height="28" fill="white" /><rect x="679.5" y="327.5" width="101" height="25" fill="black" /></mask><g mask="url(#278ce)"><path d="M 610,340 L 850,340" fill="none" stroke="#9A9A9A" stroke-width="2" stroke-linecap="round" stroke-linejoin="round"/><path d="M 850,340 L 841.304347826087,334.25 L 841.304347826087,345.75 Z" fill="rgb(154,154,154)" stroke="#9A9A9A" stroke-width="2" stroke-linecap="round" stroke-linejoin="round"/></g><g transform="translate(682.5, 330.5)" width="95" height="19"><text text-decoration="none" x="0.5" fill="rgb(84, 84, 84)" font-size="10pt" font-family="lt_regular"  y="15">12.Valid&#160;</text><text text-decoration="none" x="50.5" fill="rgb(84, 84, 84)" font-size="10pt" font-family="lt_regular"  y="15">account</text><text text-decoration="none" x="94.5" fill="#4b4b4b" font-size="10pt" font-family="noto_regular"  y="15"></text></g></g><g id="LAwdLGKR2KK"><mask id="147a8" x="596" y="366" width="268" height="28" maskUnits="userSpaceOnUse"><rect x="596" y="366" width="268" height="28" fill="white" /><rect x="671" y="358.5" width="118" height="43" fill="black" /></mask><g mask="url(#147a8)"><path d="M 610,380 L 850,380" fill="none" stroke="#9A9A9A" stroke-width="2" stroke-linecap="round" stroke-linejoin="round"/><path d="M 850,380 L 841.304347826087,374.25 L 841.304347826087,385.75 Z" fill="rgb(154,154,154)" stroke="#9A9A9A" stroke-width="2" stroke-linecap="round" stroke-linejoin="round"/></g><g transform="translate(674, 361.5)" width="112" height="37"><text text-decoration="none" x="0" fill="rgb(84, 84, 84)" font-size="10pt" font-family="lt_regular"  y="14">13.Return&#160;</text><text text-decoration="none" x="61" fill="rgb(84, 84, 84)" font-size="10pt" font-family="lt_regular"  y="14">member&#160;</text><text text-decoration="none" x="112" fill="rgb(84, 84, 84)" font-size="10pt" font-family="lt_regular"  y="14"></text><text text-decoration="none" x="16" fill="rgb(84, 84, 84)" font-size="10pt" font-family="lt_regular"  y="33">saved&#160;</text><text text-decoration="none" x="52" fill="rgb(84, 84, 84)" font-size="10pt" font-family="lt_regular"  y="33">address</text><text text-decoration="none" x="96" fill="#4b4b4b" font-size="10pt" font-family="noto_regular"  y="33"></text></g></g><g id="mvXcRXaHNpE"><mask id="4edaa" x="336" y="386" width="268" height="28" maskUnits="userSpaceOnUse"><rect x="336" y="386" width="268" height="28" fill="white" /><rect x="389.5" y="378.5" width="161" height="43" fill="black" /></mask><g mask="url(#4edaa)"><path d="M 350,400 L 590,400" fill="none" stroke="#9A9A9A" stroke-width="2" stroke-linecap="round" stroke-linejoin="round"/><path d="M 590,400 L 581.304347826087,394.25 L 581.304347826087,405.75 Z" fill="rgb(154,154,154)" stroke="#9A9A9A" stroke-width="2" stroke-linecap="round" stroke-linejoin="round"/></g><g transform="translate(392.5, 381.5)" width="155" height="37"><text text-decoration="none" x="21" fill="rgb(84, 84, 84)" font-size="10pt" font-family="lt_regular"  y="14">14.Display&#160;</text><text text-decoration="none" x="85" fill="rgb(84, 84, 84)" font-size="10pt" font-family="lt_regular"  y="14">delivery&#160;</text><text text-decoration="none" x="134" fill="rgb(84, 84, 84)" font-size="10pt" font-family="lt_regular"  y="14"></text><text text-decoration="none" x="2.5" fill="rgb(84, 84, 84)" font-size="10pt" font-family="lt_regular"  y="33">address&#160;</text><text text-decoration="none" x="49.5" fill="rgb(84, 84, 84)" font-size="10pt" font-family="lt_regular"  y="33">and&#160;</text><text text-decoration="none" x="72.5" fill="rgb(84, 84, 84)" font-size="10pt" font-family="lt_regular"  y="33">payment&#160;</text><text text-decoration="none" x="125.5" fill="rgb(84, 84, 84)" font-size="10pt" font-family="lt_regular"  y="33">page</text><text text-decoration="none" x="152.5" fill="#4b4b4b" font-size="10pt" font-family="noto_regular"  y="33"></text></g></g><g id="igAKw3nTXCa"><mask id="f77c4" x="336" y="426" width="268" height="28" maskUnits="userSpaceOnUse"><rect x="336" y="426" width="268" height="28" fill="white" /><rect x="397" y="427.49999999999994" width="146" height="25" fill="black" /></mask><g mask="url(#f77c4)"><path d="M 350,440 L 460,440 Q 460,440 470,440 Q 479.9999999999999,439.9999999999999 480,439.9999999999999 L 590,440" fill="none" stroke="#9A9A9A" stroke-width="2" stroke-linecap="round" stroke-linejoin="round"/><path d="M 590,440 L 581.304347826087,434.25 L 581.304347826087,445.75 Z" fill="rgb(154,154,154)" stroke="#9A9A9A" stroke-width="2" stroke-linecap="round" stroke-linejoin="round"/></g><g transform="translate(400, 430.49999999999994)" width="140" height="19"><text text-decoration="none" x="1.5" fill="rgb(84, 84, 84)" font-size="10pt" font-family="lt_regular"  y="15">15.Click&#160;</text><text text-decoration="none" x="51.5" fill="rgb(84, 84, 84)" font-size="10pt" font-family="lt_regular"  y="15">confirm&#160;</text><text text-decoration="none" x="97.5" fill="rgb(84, 84, 84)" font-size="10pt" font-family="lt_regular"  y="15">button&#160;</text><text text-decoration="none" x="138.5" fill="#4b4b4b" font-size="10pt" font-family="noto_regular"  y="15"></text></g></g><g id="axjvhYG5yz0"><mask id="eef7f" x="336" y="466" width="268" height="28" maskUnits="userSpaceOnUse"><rect x="336" y="466" width="268" height="28" fill="white" /><rect x="392" y="449.5" width="156" height="61" fill="black" /></mask><g mask="url(#eef7f)"><path d="M 350,480 L 590,480" fill="none" stroke="#9A9A9A" stroke-width="2" stroke-linecap="round" stroke-linejoin="round"/><path d="M 590,480 L 581.304347826087,474.25 L 581.304347826087,485.75 Z" fill="rgb(154,154,154)" stroke="#9A9A9A" stroke-width="2" stroke-linecap="round" stroke-linejoin="round"/></g><g transform="translate(395, 452.5)" width="150" height="55"><text text-decoration="none" x="16" fill="rgb(84, 84, 84)" font-size="10pt" font-family="lt_regular"  y="14">16.Request&#160;</text><text text-decoration="none" x="85" fill="rgb(84, 84, 84)" font-size="10pt" font-family="lt_regular"  y="14">to&#160;</text><text text-decoration="none" x="100" fill="rgb(84, 84, 84)" font-size="10pt" font-family="lt_regular"  y="14">enter&#160;</text><text text-decoration="none" x="134" fill="rgb(84, 84, 84)" font-size="10pt" font-family="lt_regular"  y="14"></text><text text-decoration="none" x="43.5" fill="rgb(84, 84, 84)" font-size="10pt" font-family="lt_regular"  y="32">credit&#160;</text><text text-decoration="none" x="79.5" fill="rgb(84, 84, 84)" font-size="10pt" font-family="lt_regular"  y="32">card&#160;</text><text text-decoration="none" x="106.5" fill="rgb(84, 84, 84)" font-size="10pt" font-family="lt_regular"  y="32"></text><text text-decoration="none" x="2" fill="rgb(84, 84, 84)" font-size="10pt" font-family="lt_regular"  y="51">number&#160;</text><text text-decoration="none" x="49" fill="rgb(84, 84, 84)" font-size="10pt" font-family="lt_regular"  y="51">and&#160;</text><text text-decoration="none" x="72" fill="rgb(84, 84, 84)" font-size="10pt" font-family="lt_regular"  y="51">security&#160;</text><text text-decoration="none" x="121" fill="rgb(84, 84, 84)" font-size="10pt" font-family="lt_regular"  y="51">code</text><text text-decoration="none" x="148" fill="#4b4b4b" font-size="10pt" font-family="noto_regular"  y="51"></text></g></g><g id="j21fa7ttdjo"><mask id="93f66" x="336" y="526" width="268" height="28" maskUnits="userSpaceOnUse"><rect x="336" y="526" width="268" height="28" fill="white" /><rect x="392" y="518.5" width="156" height="43" fill="black" /></mask><g mask="url(#93f66)"><path d="M 350,540 L 590,540" fill="none" stroke="#9A9A9A" stroke-width="2" stroke-linecap="round" stroke-linejoin="round"/><path d="M 590,540 L 581.304347826087,534.25 L 581.304347826087,545.75 Z" fill="rgb(154,154,154)" stroke="#9A9A9A" stroke-width="2" stroke-linecap="round" stroke-linejoin="round"/></g><g transform="translate(395, 521.5)" width="150" height="37"><text text-decoration="none" x="16.5" fill="rgb(84, 84, 84)" font-size="10pt" font-family="lt_regular"  y="14">17.Enter&#160;</text><text text-decoration="none" x="70.5" fill="rgb(84, 84, 84)" font-size="10pt" font-family="lt_regular"  y="14">credit&#160;</text><text text-decoration="none" x="106.5" fill="rgb(84, 84, 84)" font-size="10pt" font-family="lt_regular"  y="14">card&#160;</text><text text-decoration="none" x="133.5" fill="rgb(84, 84, 84)" font-size="10pt" font-family="lt_regular"  y="14"></text><text text-decoration="none" x="2" fill="rgb(84, 84, 84)" font-size="10pt" font-family="lt_regular"  y="33">number&#160;</text><text text-decoration="none" x="49" fill="rgb(84, 84, 84)" font-size="10pt" font-family="lt_regular"  y="33">and&#160;</text><text text-decoration="none" x="72" fill="rgb(84, 84, 84)" font-size="10pt" font-family="lt_regular"  y="33">security&#160;</text><text text-decoration="none" x="121" fill="rgb(84, 84, 84)" font-size="10pt" font-family="lt_regular"  y="33">code</text><text text-decoration="none" x="148" fill="#4b4b4b" font-size="10pt" font-family="noto_regular"  y="33"></text></g></g><g id="vahmaIhsDsh"><mask id="b1278" x="596" y="536" width="478" height="38" maskUnits="userSpaceOnUse"><rect x="596" y="536" width="478" height="38" fill="white" /><rect x="774" y="542.5" width="122" height="25" fill="black" /></mask><g mask="url(#b1278)"><path d="M 610,560 L 825,560 Q 830,560 835,555 Q 840,550 845,550 L 1060,550" fill="none" stroke="#9A9A9A" stroke-width="2" stroke-linecap="round" stroke-linejoin="round"/><path d="M 1060,550 L 1051.304347826087,544.25 L 1051.304347826087,555.75 Z" fill="rgb(154,154,154)" stroke="#9A9A9A" stroke-width="2" stroke-linecap="round" stroke-linejoin="round"/></g><g transform="translate(777, 545.5)" width="116" height="19"><text text-decoration="none" x="12.5" fill="rgb(84, 84, 84)" font-size="10pt" font-family="lt_regular"  y="14">18.Verify&#160;</text><text text-decoration="none" x="70.5" fill="rgb(84, 84, 84)" font-size="10pt" font-family="lt_regular"  y="14">credit&#160;</text><text text-decoration="none" x="46" fill="rgb(84, 84, 84)" font-size="10pt" font-family="lt_regular"  y="33">card</text><text text-decoration="none" x="70" fill="#4b4b4b" font-size="10pt" font-family="noto_regular"  y="33"></text></g></g><g id="qK2CQl7jXck"><mask id="6da01" x="596" y="556" width="478" height="38" maskUnits="userSpaceOnUse"><rect x="596" y="556" width="478" height="38" fill="white" /><rect x="777" y="562.5" width="116" height="25" fill="black" /></mask><g mask="url(#6da01)"><path d="M 610,580 L 825,580 Q 830,580 835,575 Q 840,570 845,570 L 1060,570" fill="none" stroke="#9A9A9A" stroke-width="2" stroke-linecap="round" stroke-linejoin="round"/><path d="M 1060,570 L 1051.304347826087,564.25 L 1051.304347826087,575.75 Z" fill="rgb(154,154,154)" stroke="#9A9A9A" stroke-width="2" stroke-linecap="round" stroke-linejoin="round"/></g><g transform="translate(780, 565.5)" width="110" height="19"><text text-decoration="none" x="0" fill="rgb(84, 84, 84)" font-size="10pt" font-family="lt_regular"  y="15">19.Valid&#160;</text><text text-decoration="none" x="50" fill="rgb(84, 84, 84)" font-size="10pt" font-family="lt_regular"  y="15">credit&#160;</text><text text-decoration="none" x="86" fill="rgb(84, 84, 84)" font-size="10pt" font-family="lt_regular"  y="15">card</text><text text-decoration="none" x="110" fill="#4b4b4b" font-size="10pt" font-family="noto_regular"  y="15"></text></g></g><g id="1uIyX98Esxs"><mask id="d6902" x="336" y="606" width="268" height="28" maskUnits="userSpaceOnUse"><rect x="336" y="606" width="268" height="28" fill="white" /><rect x="402" y="607.5" width="136" height="25" fill="black" /></mask><g mask="url(#d6902)"><path d="M 350,620 L 590,620" fill="none" stroke="#9A9A9A" stroke-width="2" stroke-linecap="round" stroke-linejoin="round"/><path d="M 590,620 L 581.304347826087,614.25 L 581.304347826087,625.75 Z" fill="rgb(154,154,154)" stroke="#9A9A9A" stroke-width="2" stroke-linecap="round" stroke-linejoin="round"/></g><g transform="translate(405, 610.5)" width="130" height="19"><text text-decoration="none" x="0.5" fill="rgb(84, 84, 84)" font-size="10pt" font-family="lt_regular"  y="15">20.Display&#160;</text><text text-decoration="none" x="64.5" fill="rgb(84, 84, 84)" font-size="10pt" font-family="lt_regular"  y="15">order&#160;</text><text text-decoration="none" x="98.5" fill="rgb(84, 84, 84)" font-size="10pt" font-family="lt_regular"  y="15">detail</text><text text-decoration="none" x="129.5" fill="#4b4b4b" font-size="10pt" font-family="noto_regular"  y="15"></text></g></g><g id="M6CpSB2O2k0"><mask id="f75ec" x="336" y="646" width="268" height="28" maskUnits="userSpaceOnUse"><rect x="336" y="646" width="268" height="28" fill="white" /><rect x="405.5" y="647.5" width="129" height="25" fill="black" /></mask><g mask="url(#f75ec)"><path d="M 350,660 L 590,660" fill="none" stroke="#9A9A9A" stroke-width="2" stroke-linecap="round" stroke-linejoin="round"/><path d="M 590,660 L 581.304347826087,654.25 L 581.304347826087,665.75 Z" fill="rgb(154,154,154)" stroke="#9A9A9A" stroke-width="2" stroke-linecap="round" stroke-linejoin="round"/></g><g transform="translate(408.5, 650.5)" width="123" height="19"><text text-decoration="none" x="1" fill="rgb(84, 84, 84)" font-size="10pt" font-family="lt_regular"  y="15">21.Click&#160;</text><text text-decoration="none" x="51" fill="rgb(84, 84, 84)" font-size="10pt" font-family="lt_regular"  y="15">finish&#160;</text><text text-decoration="none" x="84" fill="rgb(84, 84, 84)" font-size="10pt" font-family="lt_regular"  y="15">button</text><text text-decoration="none" x="122" fill="#4b4b4b" font-size="10pt" font-family="noto_regular"  y="15"></text></g></g><g id="Dq9WMc1GgeX"><mask id="732c8" x="336" y="686" width="268" height="28" maskUnits="userSpaceOnUse"><rect x="336" y="686" width="268" height="28" fill="white" /><rect x="393" y="687.5" width="154" height="25" fill="black" /></mask><g mask="url(#732c8)"><path d="M 350,700 L 590,700" fill="none" stroke="#9A9A9A" stroke-width="2" stroke-linecap="round" stroke-linejoin="round"/><path d="M 590,700 L 581.304347826087,694.25 L 581.304347826087,705.75 Z" fill="rgb(154,154,154)" stroke="#9A9A9A" stroke-width="2" stroke-linecap="round" stroke-linejoin="round"/></g><g transform="translate(396, 690.5)" width="148" height="19"><text text-decoration="none" x="0" fill="rgb(84, 84, 84)" font-size="10pt" font-family="lt_regular"  y="15">22.Display&#160;</text><text text-decoration="none" x="64" fill="rgb(84, 84, 84)" font-size="10pt" font-family="lt_regular"  y="15">delivery&#160;</text><text text-decoration="none" x="113" fill="rgb(84, 84, 84)" font-size="10pt" font-family="lt_regular"  y="15">status</text><text text-decoration="none" x="148" fill="#4b4b4b" font-size="10pt" font-family="noto_regular"  y="15"></text></g></g></svg>